<svg width="26" height="26" xmlns="http://www.w3.org/2000/svg">

 <g>
  <title>background</title>
  <rect fill="none" id="canvas_background" height="402" width="582" y="-1" x="-1"/>
 </g>
 <g>
  <title>Layer 1</title>
  <path id="svg_1" fill="#ffffff" d="m14.06055,13l10.71972,-10.71973c0.29297,-0.29297 0.29297,-0.76757 0,-1.06054s-0.76757,-0.29297 -1.06054,0l-10.71973,10.71972l-10.71973,-10.71972c-0.29297,-0.29297 -0.76757,-0.29297 -1.06054,0s-0.29297,0.76757 0,1.06054l10.71972,10.71973l-10.71972,10.71973c-0.29297,0.29297 -0.29297,0.76757 0,1.06054c0.14648,0.14649 0.33789,0.21973 0.53027,0.21973s0.38379,-0.07324 0.53027,-0.21973l10.71973,-10.71972l10.71973,10.71972c0.14648,0.14649 0.33789,0.21973 0.53027,0.21973s0.38379,-0.07324 0.53027,-0.21973c0.29297,-0.29297 0.29297,-0.76757 0,-1.06054l-10.71972,-10.71973z"/>
 </g>
</svg>